<svg width="111" height="75" viewBox="0 0 111 75" fill="none" xmlns="http://www.w3.org/2000/svg">
<path d="M67.8542 51.059V24.0545C67.8542 20.3101 65.8355 16.7927 62.6952 14.9773L39.4795 1.36156C36.2271 -0.567337 32.3017 -0.567337 29.0493 1.36156L6.05796 14.8638C2.80553 16.7927 0.898926 20.1967 0.898926 23.941V51.059C0.898926 54.8033 2.91768 58.3207 6.05796 60.1361L29.1615 73.6384C32.4139 75.5673 36.3392 75.5673 39.5917 73.6384L62.583 60.1361C65.8355 58.2072 67.8542 54.8033 67.8542 51.059Z" fill="url(#paint0_linear)"/>
<path d="M110.36 51.059V24.0545C110.36 20.3101 108.341 16.7927 105.201 14.9773L82.0975 1.36156C78.8451 -0.567337 74.9198 -0.567337 71.6673 1.36156L48.5638 14.8638C45.3114 16.7927 43.4048 20.1967 43.4048 23.941V51.059C43.4048 54.8033 45.4235 58.3207 48.5638 60.1361L71.6673 73.6384C74.9198 75.5673 78.8451 75.5673 82.0975 73.6384L105.201 60.1361C108.453 58.2072 110.36 54.8033 110.36 51.059Z" fill="url(#paint1_linear)"/>
<path d="M46.6574 34.2662V39.4856L33.9841 23.0333H26.0212V54.236H34.4327V37.1029L47.5546 54.236H55.0689V45.6127L46.6574 34.2662Z" fill="white"/>
<path d="M46.6572 23.0333V30.9758L55.7416 43.1165H70.0972V35.8548H55.5173V30.6354H66.5083L60.6763 23.0333H46.6572Z" fill="white"/>
<path d="M64.6019 23.0333H63.0317L68.8637 30.6354H73.9106V54.236H82.4342V30.6354H91.6307V23.0333H64.6019Z" fill="white"/>
<defs>
<linearGradient id="paint0_linear" x1="27.17" y1="1.23561" x2="41.7928" y2="73.7056" gradientUnits="userSpaceOnUse">
<stop stop-color="#FF4379"/>
<stop offset="1" stop-color="#8300FF"/>
</linearGradient>
<linearGradient id="paint1_linear" x1="69.7635" y1="1.23561" x2="84.3864" y2="73.7056" gradientUnits="userSpaceOnUse">
<stop/>
<stop offset="1" stop-color="#65007F"/>
</linearGradient>
</defs>
</svg>
